<svg xmlns="http://www.w3.org/2000/svg" xmlns:xlink="http://www.w3.org/1999/xlink" viewBox="0 0 877.5 388.91"><defs><style>.cls-1{fill:none;}.cls-2{clip-path:url(#clip-path);}</style><clipPath id="clip-path" transform="translate(-101.25 -142.85)"><rect class="cls-1" width="1080" height="675"/></clipPath></defs><g id="Layer_2" data-name="Layer 2"><g id="Layer_1-2" data-name="Layer 1"><g class="cls-2"><path d="M257.11,434v-26.6q-7.86,13.11-24.35,21.73t-39,8.61a96.68,96.68,0,0,1-37.09-6.93,84.24,84.24,0,0,1-29.22-19.86,90.66,90.66,0,0,1-19.3-31.47q-6.93-18.54-6.93-41.4t6.93-41.4a90.85,90.85,0,0,1,19.3-31.47,84.38,84.38,0,0,1,29.22-19.86,96.68,96.68,0,0,1,37.09-6.93q21.74,0,37.47,7.68T254.86,265V142.85h42V434ZM200.54,274.36a60.48,60.48,0,0,0-22.67,4.12,47.81,47.81,0,0,0-17.8,12.36,59.9,59.9,0,0,0-11.8,20.05,87.76,87.76,0,0,0,0,54.33,57.61,57.61,0,0,0,11.8,19.85,48.54,48.54,0,0,0,17.8,12.18,60.48,60.48,0,0,0,22.67,4.12q23.6,0,39-14.8t15.36-43.65V332.81q0-28.47-15.36-43.46T200.54,274.36Z" transform="translate(-101.25 -142.85)"/><path d="M592.19,458q0,34.85-19.3,54.32t-52.26,19.49c-3.5,0-6.5-.07-9-.19a62,62,0,0,1-7.87-.94V493.91a54.22,54.22,0,0,0,12,1.13q15.74,0,25.1-9.37t9.37-26.6V241.76h42Zm-.08-256.72h-42v-42h42Z" transform="translate(-101.25 -142.85)"/><path d="M701.07,238.39q37.45,0,57.14,19.48t19.67,56.58V434H735.54V416.73a77.42,77.42,0,0,1-23,15.36,72.08,72.08,0,0,1-29,5.62q-28.86,0-46.46-14.61t-17.61-41.58q0-15.36,5.44-26a48.57,48.57,0,0,1,15-17.61,66.45,66.45,0,0,1,22.48-10.31,136.58,136.58,0,0,1,27.54-4.12l45.71-2.62V315.2q0-18.74-8.06-29.41t-26-10.68q-18,0-26.22,9.74A34.26,34.26,0,0,0,667,307.7l-42.33-1.49a62.39,62.39,0,0,1,5.24-24.92,67.83,67.83,0,0,1,15-21.73,73.13,73.13,0,0,1,24-15.36Q683.09,238.4,701.07,238.39ZM695.82,356q-15,.75-24.54,6.18t-9.55,18.55q0,12,8,16.86t20.8,4.87q20.24,0,32.78-10.12t12.55-32.22v-6.75Z" transform="translate(-101.25 -142.85)"/><path d="M849.87,263.49q6.74-10.11,20.22-17.61t33.73-7.49A81.09,81.09,0,0,1,934,243.82a66.55,66.55,0,0,1,23.6,15.74,73.09,73.09,0,0,1,15.55,25.1q5.63,14.8,5.62,33.54V434H936.41V323.82q0-21.74-11.42-34.1t-30.54-12.36q-20.24,0-32.41,13.3t-12.17,33.53V434h-42V142.85h42Z" transform="translate(-101.25 -142.85)"/><path d="M510.58,284.43,476.84,251a40.5,40.5,0,0,0-28.51-11.74h-52.7A40.52,40.52,0,0,0,367.11,251l-33.74,33.42a40.52,40.52,0,0,0-12,28.79v52.21a40.53,40.53,0,0,0,12,28.82l40.71,40.26a12.77,12.77,0,0,1,3.8,9.09v16.3a16.8,16.8,0,0,0,16.8,16.8h53.5A16.8,16.8,0,0,0,465,459.9V444.62a12.79,12.79,0,0,1,3.8-9.09l41.75-41.28a40.57,40.57,0,0,0,12-28.81V313.22A40.53,40.53,0,0,0,510.58,284.43ZM480,358.17A21.91,21.91,0,0,1,474.2,373l-16,17.36a20.7,20.7,0,0,0-4,21.69l9.07,22.85H380.7L389.81,412a20.72,20.72,0,0,0-3.93-21.59l-16-17.53a21.94,21.94,0,0,1-5.7-14.74V320.16a21.89,21.89,0,0,1,5.58-14.6l18.26-20.39a21.89,21.89,0,0,1,16.31-7.29h35.24a21.89,21.89,0,0,1,16.28,7.26l18.49,20.56A21.91,21.91,0,0,1,480,320.34Z" transform="translate(-101.25 -142.85)"/></g></g></g></svg>